<?xml version="1.0" encoding="utf-8" ?>
<svg xmlns="http://www.w3.org/2000/svg" xmlns:ev="http://www.w3.org/2001/xml-events" xmlns:xlink="http://www.w3.org/1999/xlink" baseProfile="full" height="449.2467162472802" version="1.1" viewBox="-246.03963893436233 -425.8606026979918 989.8527093054576 449.2467162472802" width="989.8527093054576">
  <defs/>
  <path d="M 174.6491957785379,-323.9750259382757 L 75.20947700057278,-422.50751849096787 C 38.85916799188513,-384.3493933359481 49.725985797744926,-359.46202248504835 33.234582460575155,-326.6124581509779 L 126.94518417355246,-274.70693500988966 L 174.6491957785379,-323.9750259382757" fill="rgb(227,175,186)" stroke="rgb(51,51,51)" stroke-width="0.75"/>
  <path d="M -172.66390988832106,-320.150839785305 L -123.6323145991903,-272.2037838763215 L -32.62638247026146,-328.45501135206234 C -49.4917483506992,-360.05273790144605 -40.31835599078724,-385.0142938372288 -72.30346348746544,-419.5994525098044 L -172.66390988832106,-320.150839785305" fill="rgb(227,175,186)" stroke="rgb(51,51,51)" stroke-width="0.75"/>
  <path d="M -57.26037467688104,-310.05618252352025 L -244.03963893436233,-63.564941043148934 A 387.26414952003955,387.26414952003955 -0.06513382277879357 0,0 242.73716804415614,-66.61243826052885 L 62.788521186827666,-309.58547637904945 A 85.64188458710332,85.64188458710332 -0.06513382277879357 0,1 6.842316726332058,-290.19237488740396 A 95.55323934195053,95.55323934195053 -0.06513382277879357 0,1 -57.26037467688104,-310.05618252352025" fill="rgb(227,175,186)" stroke="rgb(51,51,51)" stroke-width="0.75"/>
  <path d="M -1.7568270140359292,-320.74388055723944 L 80.69235001346365,-320.46372060745324 L 86.7196960740148,-320.46483554625144 L 87.86183634822966,-352.4989994725129 C 56.28933386143091,-356.3122839708077 55.136990543939476,-379.4606767205676 51.68592311838216,-416.4822714656835 C 48.6723556146879,-416.16993995933274 47.95471315944433,-416.79332933850964 48.815469975230826,-418.04057030190927 L 33.96173280785043,-421.4672482449754 L -0.6815219483036647,-345.8575940129258 L -1.7568270140359292,-320.74388055723944" fill="rgb(227,175,186)" stroke="rgb(51,51,51)" stroke-width="0.75"/>
  <path d="M -1.3872196870180176,-316.7376243473201 L -1.730489146275218,-343.2527078006027 L -44.88857217000816,-422.22796376111415 L -54.619151049514024,-416.56779655965966 C -52.889353294066964,-415.0175612267577 -52.3122383864576,-414.396896791043 -52.87849916613739,-412.83520102892913 C -57.853756881225095,-374.3459299972713 -57.73669663342184,-350.7689375350691 -87.00777396110216,-349.7661974162875 L -86.82628851275227,-313.21208945217825 L -1.3872196870180176,-316.7376243473201" fill="rgb(227,175,186)" stroke="rgb(51,51,51)" stroke-width="0.75"/>
  <path d="M 496.8220151321419,-314.29910308014115 L 496.7951448408057,-409.4041006808958 A 44.22013476046017,44.22013476046017 -0.061608212409570914 0,0 533.5194890685669,-422.2260007762303 L 548.1633554533574,-416.6299563619224 C 550.6458965427888,-376.72659116319926 548.9485192869798,-353.73203078386956 576.6492075961733,-350.41028203651814 L 576.9779602131762,-311.5957514196791 L 496.8220151321419,-314.29910308014115" fill="rgb(227,175,186)" stroke="rgb(51,51,51)" stroke-width="0.75"/>
  <path d="M 496.76563992811737,-318.89158061874434 L 418.1947776701687,-318.3846379633068 L 418.93473792556796,-350.0254374581916 C 445.37461702764193,-356.51189896972386 444.91461809347675,-378.2602678326104 445.09364962164625,-412.3981980757125 L 457.4711549968091,-419.1922377371187 A 307.161188411651,307.161188411651 0.3004473369131786 0,1 497.4832467629808,-413.99409669850013 L 496.76563992811737,-318.89158061874434" fill="rgb(227,175,186)" stroke="rgb(51,51,51)" stroke-width="0.75"/>
  <path d="M 436.13942360838246,-309.67064737621337 A 110.22296785233554,110.22296785233554 -0.05002094827595553 0,0 494.35167673192075,-291.3436245258802 A 95.51727422836042,95.51727422836042 -0.05002094827595553 0,0 552.1721393421736,-306.67064127704316 A 8.873583340835072,8.873583340835072 -0.05002094827595553 0,1 557.9097450235276,-309.7933111419722 L 741.8130703710953,-66.15279288592987 A 386.05399041846056,386.05399041846056 -0.05002094827595553 0,1 252.73716804415616,-65.72581472389828 L 436.13942360838246,-309.67064737621337" fill="rgb(227,175,186)" stroke="rgb(51,51,51)" stroke-width="0.75"/>
  <path d="M 672.7312063477128,-325.06597789638056 L 623.5637115056406,-274.6090158227738 L 532.1039217731135,-326.7301126346625 C 548.0189161490702,-362.0062750866023 536.8682328146168,-387.3530284945511 571.5616992094747,-421.88127818640027 C 573.0344737097483,-421.72730683000475 573.1085082342518,-423.42071988760404 573.5504961967838,-423.8606026979918 L 672.7312063477128,-325.06597789638056" fill="rgb(227,175,186)" stroke="rgb(51,51,51)" stroke-width="0.75"/>
  <path d="M 326.6422187474218,-321.48529421903095 L 427.07786997053995,-420.0401940345308 C 426.2815796665046,-418.39087629224275 426.54944772327934,-416.4735580636668 428.6277638381272,-417.63179584767556 C 459.20027081527417,-383.86557269438674 451.0518698790769,-359.3466207334276 467.161647609729,-328.88641584515136 L 373.50759972701206,-274.02093336863004 L 326.6422187474218,-321.48529421903095" fill="rgb(227,175,186)" stroke="rgb(51,51,51)" stroke-width="0.75"/>
</svg>
