<?xml version="1.0" encoding="utf-8" ?>
<svg xmlns="http://www.w3.org/2000/svg" xmlns:ev="http://www.w3.org/2001/xml-events" xmlns:xlink="http://www.w3.org/1999/xlink" baseProfile="full" height="334.87334918094086" version="1.1" viewBox="-172.73497512606392 -423.8494694044695 684.4703083968551 334.87334918094086" width="684.4703083968551">
  <defs/>
  <path d="M -35.35439109793157,-252.69031496670192 L -170.73497512606392,-240.98705621843558 A 169.46687568621783,169.46687568621783 -0.07798342078004304 0,0 163.36802748870696,-229.59467587454535 L 100.77345620769267,-247.90368890217567 L 166.79482439728446,-242.3817560652008 A 7.6263324735636635,7.6263324735636635 -0.07798342078004304 0,0 164.49105663360388,-247.9904129079515 L 45.08594487405179,-252.50438808608052 A 36.89779919997211,36.89779919997211 -0.07798342078004304 0,1 8.974943184926815,-213.4844577964889 A 42.66395028683441,42.66395028683441 -0.07798342078004304 0,1 -35.35439109793157,-252.69031496670192" fill="rgb(227,175,186)" stroke="rgb(51,51,51)" stroke-width="0.75"/>
  <path d="M -0.5880941349962114,-232.58525672813255 L 0.9661204287292549,-344.2174761780846 L -52.43580466554382,-351.89526413136633 L -41.96365712258552,-419.5714595882142 L -54.875291627839424,-417.6727209154933 C -57.07900772605197,-375.2676780899559 -57.02396985553277,-350.0147135704337 -86.86954774830043,-348.0790218716228 L -82.02522495022342,-232.42413436415075 L -0.5880941349962114,-232.58525672813255" fill="rgb(227,175,186)" stroke="rgb(51,51,51)" stroke-width="0.75"/>
  <path d="M -1.5297054571468678,-232.79587863061153 L 76.32736147918081,-233.0705563636464 L 83.78871828876353,-231.50660456532728 L 85.5934220184892,-351.847053616169 C 54.16685235729291,-354.36274673267275 52.74803915490694,-378.0579215091121 51.626917349031906,-417.34123543891576 L 38.857254858997955,-421.09119319366016 L 49.14062511439001,-349.3779473993024 L -1.2343940122101373,-344.11250343621066 L -1.5297054571468678,-232.79587863061153" fill="rgb(227,175,186)" stroke="rgb(51,51,51)" stroke-width="0.75"/>
  <path d="M 347.39491517682364,-231.6362170365692 L 343.2228612487091,-398.1334671798654 A 40.23138368258773,40.23138368258773 -0.0294939630330647 0,0 385.5455900346544,-421.8494694044695 L 398.60772708711926,-416.2444053854925 C 400.0617406766781,-379.4567946388064 396.2000162252776,-354.20177979332374 426.05214183963585,-349.54060917322033 L 424.1041721681486,-230.75676098194128 L 347.39491517682364,-231.6362170365692" fill="rgb(227,175,186)" stroke="rgb(51,51,51)" stroke-width="0.75"/>
  <path d="M 341.90422702702097,-228.2491499631225 L 267.9259618498922,-227.66550019970072 L 265.5786549688788,-343.03072828470374 C 295.46054806705007,-350.0659711298288 292.6978025698482,-373.7729312992177 291.1453040670859,-411.19229459486587 L 299.76984064414734,-414.2708958860932 A 49.926487523115114,49.926487523115114 0.2596886324094348 0,0 343.1676083398171,-395.3680479845954 L 341.90422702702097,-228.2491499631225" fill="rgb(227,175,186)" stroke="rgb(51,51,51)" stroke-width="0.75"/>
  <path d="M 301.8605672171526,-251.218377764271 A 41.833343847066544,41.833343847066544 0.003824416985850466 0,0 340.3217521702006,-211.32612247682246 A 43.415689296959364,43.415689296959364 0.003824416985850466 0,0 384.3093173386925,-245.6174417367371 A 289.32218822576124,289.32218822576124 0.003824416985850466 0,1 388.0408645815769,-250.6054479876646 L 509.73533327079116,-242.80317609589224 A 167.17451412302808,167.17451412302808 0.003824416985850466 0,1 176.79621259060204,-242.8253993388797 L 301.8605672171526,-251.218377764271" fill="rgb(227,175,186)" stroke="rgb(51,51,51)" stroke-width="0.75"/>
</svg>
