<?xml version="1.0" encoding="utf-8" ?>
<svg xmlns="http://www.w3.org/2000/svg" xmlns:ev="http://www.w3.org/2001/xml-events" xmlns:xlink="http://www.w3.org/1999/xlink" baseProfile="full" height="314.94918620396135" version="1.1" viewBox="-167.35472365667366 -424.2297275857504 658.6576247687792 314.94918620396135" width="658.6576247687792">
  <defs/>
  <path d="M -36.85928327877855,-266.78994088421655 L -165.35472365667366,-264.20846770284527 A 167.79236183925005,167.79236183925005 -0.32425413612932324 0,0 152.73913766060105,-251.04367064548958 L 94.10755161274903,-265.05331692779794 L 152.68620660928764,-260.3964995854768 A 7.68323190058217,7.68323190058217 -0.32425413612932324 0,0 160.67490152031212,-268.85952615394314 L 42.43306123778143,-266.94326889310395 A 36.318193325888636,36.318193325888636 -0.32425413612932324 0,1 7.648743188783499,-225.904417388173 A 42.00654194293578,42.00654194293578 -0.32425413612932324 0,1 -36.85928327877855,-266.78994088421655" fill="rgb(227,175,186)" stroke="rgb(51,51,51)" stroke-width="0.75"/>
  <path d="M -1.2723001440544301,-241.53371408888353 L 76.58481976666789,-241.79294177305158 L 84.90691519185552,-240.22674745418905 L 85.28938270699857,-348.0974724535004 C 52.141766356031354,-351.2444570949909 51.87682355751785,-376.185960259425 51.6262022609332,-417.33932938951153 L 37.92448096037434,-421.09264650048755 L 1.357508414640999,-371.24243061239156 L -1.2723001440544301,-241.53371408888353" fill="rgb(227,175,186)" stroke="rgb(51,51,51)" stroke-width="0.75"/>
  <path d="M -0.062918279494653,-240.7019201041613 L -0.15766368921116225,-371.03659417278425 L -43.18354356512508,-419.56868360945737 L -54.37115198952853,-417.04762602632576 C -54.837140359785195,-372.15210781544795 -54.774115458249554,-345.96386129234503 -85.76506339746061,-343.0833315425117 L -82.07254118875845,-239.8973868583372 L -0.062918279494653,-240.7019201041613" fill="rgb(227,175,186)" stroke="rgb(51,51,51)" stroke-width="0.75"/>
  <path d="M 334.24411402771386,-238.872196780329 L 330.92625486321447,-396.0166667427294 A 47.46805773430118,47.46805773430118 -0.03374860876248985 0,0 372.88698279506707,-422.2297275857504 L 385.44725727014816,-416.6253376904177 C 385.18337431692436,-377.342693332423 381.0379780564793,-349.5930962156633 412.61309789185816,-343.99985839837706 L 410.9532524760926,-238.31020287478168 L 334.24411402771386,-238.872196780329" fill="rgb(227,175,186)" stroke="rgb(51,51,51)" stroke-width="0.75"/>
  <path d="M 329.54833756931293,-236.90953418122805 L 254.42263419354038,-236.2559692900644 L 253.06287939124013,-338.83241257821743 C 284.94462316306954,-345.2669063066188 281.30263724771294,-370.53295357710874 279.14750473299534,-410.44688529802136 L 287.7755666038083,-415.4046928092266 A 53.67048052789994,53.67048052789994 0.20239848802487345 0,0 330.6203868384992,-397.1708036522768 L 329.54833756931293,-236.90953418122805" fill="rgb(227,175,186)" stroke="rgb(51,51,51)" stroke-width="0.75"/>
  <path d="M 288.3178980437552,-265.31787576291515 A 41.966698014289285,41.966698014289285 0.05656703259192211 0,0 326.1670807065373,-224.14373613002059 A 43.875666415825734,43.875666415825734 0.05656703259192211 0,0 370.18742470260474,-259.64161211343844 A 67.36692258076468,67.36692258076468 0.05656703259192211 0,1 373.34983709701964,-264.9385137787386 L 489.30290111210553,-263.2652049425508 A 159.44793102332352,159.44793102332352 0.05656703259192211 0,1 170.7153747583111,-264.20327266411755 L 288.3178980437552,-265.31787576291515" fill="rgb(227,175,186)" stroke="rgb(51,51,51)" stroke-width="0.75"/>
</svg>
