<?xml version="1.0" encoding="utf-8" ?>
<svg xmlns="http://www.w3.org/2000/svg" xmlns:ev="http://www.w3.org/2001/xml-events" xmlns:xlink="http://www.w3.org/1999/xlink" baseProfile="full" height="452.87855614397245" version="1.1" viewBox="-247.72136499855588 -424.69669307688844 997.8884405265769 452.87855614397245" width="997.8884405265769">
  <defs/>
  <path d="M 172.80166933686002,-325.5636362081981 L 74.76966522356527,-422.25554248250444 C 38.57344716435058,-382.6246345124945 51.19951285735699,-359.50523190183196 33.86139268367954,-326.6185733529102 L 123.87994654747011,-274.86834441437685 L 172.80166933686002,-325.5636362081981" fill="rgb(227,175,186)" stroke="rgb(51,51,51)" stroke-width="0.75"/>
  <path d="M -170.4338505829278,-321.5913479460906 L -119.9346172152594,-272.47021572159304 L -32.044707882214254,-328.6928447561254 C -49.04064025462628,-361.0864093970937 -39.46588440459553,-384.78803398022933 -72.4018561149448,-419.31122736961566 L -170.4338505829278,-321.5913479460906" fill="rgb(227,175,186)" stroke="rgb(51,51,51)" stroke-width="0.75"/>
  <path d="M -61.393070941313994,-311.7249135642733 L -245.72136499855588,-62.62960251433984 A 383.54877209605695,383.54877209605695 -0.10010510932637895 0,0 244.49768377520135,-65.98022780485377 L 58.0815130650079,-311.6382435907768 A 82.04978849528943,82.04978849528943 -0.10010510932637895 0,1 2.4358060414425324,-291.2762031796522 A 100.85927065407087,100.85927065407087 -0.10010510932637895 0,1 -61.393070941313994,-311.7249135642733" fill="rgb(227,175,186)" stroke="rgb(51,51,51)" stroke-width="0.75"/>
  <path d="M -1.97944547918628,-322.5165402833784 L 80.75665165620636,-322.60259950265805 L 87.07101206290939,-322.6079193125566 L 88.19701408312649,-348.7972176635677 C 54.75522277759439,-353.9911157672129 54.16100214859257,-377.9576150329039 51.25814892315002,-416.7310996923409 C 48.24425933211291,-417.04031178509376 47.813479553406594,-417.3517099216034 48.24290094598318,-418.5991557716511 L 33.67471826674542,-421.0810107101055 L -1.0648180962719946,-348.41024904978394 L -1.97944547918628,-322.5165402833784" fill="rgb(227,175,186)" stroke="rgb(51,51,51)" stroke-width="0.75"/>
  <path d="M -1.1523668907090894,-317.5256981277357 L -1.2036804982854505,-344.3539818702363 L -44.62083395771387,-421.46774664379996 L -54.355726803696676,-416.43345875630956 C -52.05228501110963,-414.88551963031193 -52.04934215996865,-414.262003428075 -52.61745044800223,-413.01220468676115 C -57.016122619846534,-372.0132651324355 -56.32641518199548,-347.52315374173276 -86.74247336464501,-345.8206071948126 L -86.59523102045053,-314.64435917575133 L -1.1523668907090894,-317.5256981277357" fill="rgb(227,175,186)" stroke="rgb(51,51,51)" stroke-width="0.75"/>
  <path d="M 500.8401519331912,-315.82221453003206 L 500.89122182196525,-409.3683726981359 A 38.437135005804755,38.437135005804755 -0.014897516065119394 0,0 537.7695962678305,-421.8486001811217 L 552.4090577059467,-415.6170872426047 C 555.2898443883728,-374.73755512893183 553.5737111989099,-351.7833566648254 580.9847266595671,-348.2051266934156 L 581.2808018666196,-313.3653567783887 L 500.8401519331912,-315.82221453003206" fill="rgb(227,175,186)" stroke="rgb(51,51,51)" stroke-width="0.75"/>
  <path d="M 501.0576845747275,-320.3689629229765 L 421.910913233241,-319.57781577777996 L 422.63471392960867,-346.5419670220932 C 451.37919289577576,-354.1765791764867 450.35775930929935,-376.98047198354135 449.98525860828914,-413.26489136042983 L 463.21898062532773,-418.80326506126096 A 1860.5750519698513,1860.5750519698513 0.31821744256846907 0,0 501.9344409798333,-412.97636564221773 L 501.0576845747275,-320.3689629229765" fill="rgb(227,175,186)" stroke="rgb(51,51,51)" stroke-width="0.75"/>
  <path d="M 441.2989725056919,-309.850920547235 A 111.59220787809858,111.59220787809858 -0.06031935124847272 0,0 499.65868340586155,-290.9109806361952 A 100.65254091119638,100.65254091119638 -0.06031935124847272 0,0 557.33222558937,-306.8717703373627 A 8.873583340835072,8.873583340835072 -0.06031935124847272 0,1 563.0692699061171,-309.9954714350541 L 748.1670755280211,-63.895094464305686 A 382.0583290859769,382.0583290859769 -0.06031935124847272 0,1 254.49768377520135,-64.62243783386623 L 441.2989725056919,-309.850920547235" fill="rgb(227,175,186)" stroke="rgb(51,51,51)" stroke-width="0.75"/>
  <path d="M 332.0354330121718,-321.8200824932384 L 431.3161407379887,-419.09304683649293 C 431.1256300077771,-418.46822142081885 431.1819202094739,-416.7741239805099 433.4746045493419,-417.7178302728714 C 463.57195208658743,-383.0373338341779 454.6395349833866,-359.37735989857487 469.98707700513523,-329.8657831823509 L 380.0527669769628,-273.74090705503596 L 332.0354330121718,-321.8200824932384" fill="rgb(227,175,186)" stroke="rgb(51,51,51)" stroke-width="0.75"/>
  <path d="M 676.4308971052048,-326.1234408295858 L 626.1770660439361,-274.9901750496982 L 536.2085440546803,-327.38059601997384 C 552.8963545502987,-360.99631101810337 541.3036971145668,-385.903205746814 576.4390913360099,-420.87133181905125 C 578.795763381083,-421.59705325896783 579.458684054106,-422.2568203523278 579.9006842369653,-422.6966930768883 L 676.4308971052048,-326.1234408295858" fill="rgb(227,175,186)" stroke="rgb(51,51,51)" stroke-width="0.75"/>
</svg>
